# xmcd
#
# Track frame offsets: 
#        150
#        37507
#        77749
#        117664
#        156327
#        188765
#        223886
#        257446
#        293948
#
# Disc length: 4395 seconds
#
# Revision: 0
# Processed by: cddbd v1.5.1PL2 Copyright (c) Steve Scherf et al.
# Submitted via: ExactAudioCopy v0.95b3
#
DISCID=7b112909
DTITLE=Various Artist - TRANCE for DJ vol.1
DYEAR=2006
DGENRE=Trance
TTITLE0=IGODA - debutantez
TTITLE1=the originators - clearise
TTITLE2=Favor - Dissapering Rainbow
TTITLE3=Favor - Sea Roar
TTITLE4=the originators - elysion
TTITLE5=Hiroyuki Oda - Injection
TTITLE6=TOMOYA TACHIBANA - Eternity
TTITLE7=IGODA - halo of down
TTITLE8=Hiroyuki Oda - Transmigration
EXTD=
EXTT0=
EXTT1=
EXTT2=
EXTT3=
EXTT4=
EXTT5=
EXTT6=
EXTT7=
EXTT8=
PLAYORDER=
